<svg xmlns="http://www.w3.org/2000/svg" id="Layer_1" viewBox="0 7.39 300.03 285.23"><defs><style>.cls-1{fill:#ed3a71;}</style></defs><path class="cls-1" d="m240.67,150.98s-.02,0-.04,0c-3.97,0-7.19,3.21-7.21,7.18-.02,3.99,3.19,7.23,7.18,7.25.01,0,.02,0,.04,0,3.97,0,7.19-3.21,7.21-7.18.02-3.99-3.19-7.23-7.18-7.25Z"/><path class="cls-1" d="m297.37,161.67c-2-2.49-4.83-4.04-7.99-4.39-.1-.01-.2-.02-.29-.02l-15.95-.55-.03-.08c-4.33-13.05-7.52-22.63-23.24-37.17,3.73-8.77,7.92-14.48,16.63-22.98,1.02-1,1.43-2.48,1.06-3.86-.37-1.38-1.45-2.46-2.84-2.82-13.65-3.53-27.54-5.61-47.11,7.11-1.17-.41-2.67-.95-4.23-1.51-2.77-1-5.18-1.86-7.19-2.55,4.98-8.48,7.79-18.25,7.84-28.41.16-31.3-25.18-56.89-56.47-57.05-15.19-.05-29.44,5.76-40.22,16.42-10.77,10.67-16.75,24.89-16.83,40.05-.06,11.57,3.45,22.65,9.68,31.93-27.44,10.74-46.32,28.97-56.18,54.26-3.93,9.96-8.56,18.16-14,24.7-.16-.34-.32-.67-.48-1-3.87-7.59-10.83-12.18-19.6-12.94-5.36-.46-10.65,1.32-14.51,4.89C1.88,168.99-.05,173.47,0,178.33c.07,7.16,3.27,12.79,9.01,15.86,6.65,3.56,15.99,2.98,22.7-1.4,1.03-.68,2.05-1.38,3.05-2.12-.41,4.91-2,9.98-4.7,14.49-1.13,1.88-.52,4.31,1.36,5.44.64.38,1.34.57,2.04.57,1.35,0,2.66-.69,3.4-1.93,4.77-7.94,6.72-17.13,5.7-25.42,2.25-2.32,4.38-4.86,6.4-7.61-.41,28.21,13.65,48.17,27.62,64.77l-11.63,33.15c-.08.23-.14.46-.18.7-.49,3.13.27,6.28,2.14,8.86,1.88,2.58,4.63,4.27,7.77,4.76l25.5,4.02c.65.1,1.26.15,1.85.15,6.38,0,9.54-5.6,11.3-8.71l9.4-16.51c.39-.64.65-1.02.83-1.25,11.82,3.27,24.19,4.96,36.78,5.02,12.59.05,25.01-1.51,36.87-4.66.14.16.34.45.6.93l6.07,15.15c.04.11.09.22.15.33,1.53,2.99,5.1,10,13.13,8.82l25.54-3.76c6.5-.96,11-7.02,10.05-13.52-.02-.15-.05-.31-.09-.46l-8.45-31.3c.01-.09.05-.18.12-.23,6.16-5.2,11.58-10.99,16.1-17.21.27-.37.53-.8.84-1.3.23-.38.63-1.01.98-1.51l6.68.74c5.66.62,13.14-2.75,15.91-10.24l14.91-41.62c.1-.29.18-.6.21-.91.34-3.15-.57-6.26-2.56-8.74ZM27.37,186.15c-4.32,2.82-10.47,3.26-14.62,1.04-3.15-1.69-4.77-4.69-4.82-8.94-.03-3.33,1.55-5.5,2.88-6.73,1.96-1.82,4.7-2.85,7.47-2.85.32,0,.64.01.96.04,6.03.52,10.6,3.51,13.22,8.64.6,1.18,1.08,2.43,1.46,3.75-2.08,1.87-4.27,3.55-6.56,5.04ZM108.45,63.9c.07-13.04,5.21-25.28,14.47-34.45,9.21-9.12,21.4-14.13,34.34-14.13.08,0,.17,0,.25,0,26.92.14,48.72,22.15,48.58,49.07-.09,18.64-10.97,35.76-27.76,43.81-6.36-1.27-13.67-2.18-21.27-2.22-7.6-.03-14.92.81-21.3,2.01-16.72-8.22-27.42-25.42-27.33-44.09Zm168.91,146.31c-1.3,3.5-4.96,5.35-7.6,5.07l-8.25-.91c-.18-.02-.36-.03-.54-.02-3.17.09-5,3.04-6.47,5.42-.2.33-.38.62-.51.81-4.14,5.7-9.12,11.02-14.8,15.81-2.21,1.86-3.27,4.69-2.85,7.56.02.15.05.31.09.46l8.47,31.39c.21,2.1-1.27,4.01-3.38,4.32l-25.54,3.76c-1.11.16-2.36.35-4.83-4.42l-6.07-15.14c-.04-.1-.08-.2-.13-.3-3.11-6.23-7.68-5.76-9.5-5.27-11.28,3.03-23.08,4.54-35.09,4.48-12.01-.06-23.8-1.69-35.04-4.83-5.5-1.54-8.24,2.99-9.42,4.92-.02.03-.04.06-.05.09l-9.44,16.57c-2.68,4.75-3.65,4.85-5.01,4.64l-25.5-4.02c-1.04-.16-1.96-.73-2.59-1.59-.57-.78-.83-1.72-.76-2.66l12.25-34.9c.47-1.33.19-2.81-.72-3.89-15.23-17.86-29.84-37.83-26.82-67.94.49-4.86,1.61-9.75,3.35-14.54.26-.71.52-1.41.8-2.11.04-.1.08-.19.12-.29,0-.02,0-.04.02-.05,9.33-23.65,27.4-40.56,53.79-50.31,2.81,3.1,5.98,5.9,9.45,8.34-3.31,1-5.97,2.02-7.75,2.89-1.97.96-2.78,3.34-1.82,5.31.96,1.97,3.34,2.78,5.31,1.82,4.59-2.24,19.55-6.85,36.54-6.76,16.98.09,31.91,4.84,36.47,7.13.57.29,1.18.42,1.77.42,1.45,0,2.85-.8,3.55-2.19.98-1.96.19-4.34-1.77-5.32-1.78-.89-4.43-1.94-7.74-2.97,4.63-3.18,8.73-7.01,12.19-11.33,2.51.8,6.37,2.19,9.18,3.2,2.76,1,5.15,1.86,6.36,2.22,1.15.35,2.39.16,3.38-.52,14.64-9.97,24.98-10.62,35.51-8.64-6.99,7.54-10.84,13.85-14.49,23.17-.61,1.55-.18,3.31,1.06,4.41,15.96,14.2,18.63,22.27,23.07,35.63l.05.16c1.03,3.11,3.75,5.2,6.96,5.34l16.05.55c1,.14,1.9.65,2.54,1.45.59.73.89,1.62.88,2.53l-14.71,41.06Z"/><path class="cls-1" d="m146.86,74.83c0-1.86-1.51-3.38-3.37-3.38h0c-1.86,0-3.37,1.51-3.38,3.37,0,6.88,5.57,12.12,13.66,13.29v.12c0,.06.01.11.01.16l-.02,4.09c0,1.86,1.49,3.38,3.36,3.39h.02c1.86,0,3.37-1.5,3.38-3.36l.02-4.37c3.29-.43,6.2-1.52,8.53-3.22,3.36-2.46,5.23-5.99,5.25-9.94.07-6.93-5.2-12.4-13.66-14.48l.08-15.19c3.76.77,6.96,2.85,6.96,6.44,0,1.86,1.51,3.38,3.37,3.38h0c1.86,0,3.37-1.51,3.38-3.37,0-6.88-5.57-12.12-13.68-13.29l.02-4.38c0-1.86-1.49-3.38-3.36-3.39-1.86,0-3.38,1.49-3.39,3.36l-.02,4.25s0,0,0,0v.13c-8.13,1.1-13.75,6.28-13.78,13.15-.07,6.92,5.2,12.4,13.64,14.48l-.08,15.19c-3.75-.77-6.95-2.86-6.95-6.43Zm13.77-7.31c4.39,1.45,6.97,4.12,6.94,7.43,0,1.81-.84,3.34-2.48,4.53-1.2.87-2.75,1.5-4.53,1.83l.07-13.79Zm-13.64-15.88c.02-3.17,2.77-5.56,7-6.37l-.07,13.79c-4.38-1.45-6.96-4.12-6.93-7.42Z"/></svg>